<svg width="120" height="40" viewBox="0 0 120 40" fill="none" xmlns="http://www.w3.org/2000/svg">
<rect width="120" height="40" fill="white"/>
<path d="M17.7725 26H10.335V24.626L15.127 17.7559H10.4648V16.0059H17.6426V17.373L12.8574 24.25H17.7725V26ZM24.6152 26L24.335 25.0225H24.2256C24.0023 25.3779 23.6855 25.6536 23.2754 25.8496C22.8652 26.041 22.3981 26.1367 21.874 26.1367C20.9762 26.1367 20.2995 25.8975 19.8438 25.4189C19.388 24.9359 19.1602 24.2432 19.1602 23.3408V18.3574H21.2451V22.8213C21.2451 23.3727 21.3431 23.7874 21.5391 24.0654C21.735 24.3389 22.0472 24.4756 22.4756 24.4756C23.0589 24.4756 23.4805 24.2819 23.7402 23.8945C24 23.5026 24.1299 22.8555 24.1299 21.9531V18.3574H26.2148V26H24.6152ZM20.3359 16.3955C20.3359 16.0993 20.4202 15.8714 20.5889 15.7119C20.762 15.5524 20.9945 15.4727 21.2861 15.4727C21.5869 15.4727 21.8216 15.557 21.9902 15.7256C22.1634 15.8942 22.25 16.1175 22.25 16.3955C22.25 16.6689 22.1634 16.89 21.9902 17.0586C21.8171 17.2227 21.5824 17.3047 21.2861 17.3047C20.9945 17.3047 20.762 17.2249 20.5889 17.0654C20.4202 16.9059 20.3359 16.6826 20.3359 16.3955ZM23.0908 16.3955C23.0908 16.0765 23.182 15.8441 23.3643 15.6982C23.5511 15.5479 23.7812 15.4727 24.0547 15.4727C24.3509 15.4727 24.5856 15.5547 24.7588 15.7188C24.9365 15.8828 25.0254 16.1084 25.0254 16.3955C25.0254 16.6735 24.9365 16.8945 24.7588 17.0586C24.5811 17.2227 24.3464 17.3047 24.0547 17.3047C23.7812 17.3047 23.5511 17.2318 23.3643 17.0859C23.182 16.9355 23.0908 16.7054 23.0908 16.3955ZM32.668 18.2139C32.9505 18.2139 33.1852 18.2344 33.3721 18.2754L33.2148 20.2305C33.0462 20.1849 32.8411 20.1621 32.5996 20.1621C31.9342 20.1621 31.4147 20.333 31.041 20.6748C30.6719 21.0166 30.4873 21.4951 30.4873 22.1104V26H28.4023V18.3574H29.9814L30.2891 19.6426H30.3916C30.6286 19.2142 30.9476 18.8701 31.3486 18.6104C31.7542 18.346 32.194 18.2139 32.668 18.2139ZM34.6709 16.3818C34.6709 15.7028 35.0492 15.3633 35.8057 15.3633C36.5622 15.3633 36.9404 15.7028 36.9404 16.3818C36.9404 16.7054 36.8447 16.9583 36.6533 17.1406C36.4665 17.3184 36.1839 17.4072 35.8057 17.4072C35.0492 17.4072 34.6709 17.0654 34.6709 16.3818ZM36.8447 26H34.7598V18.3574H36.8447V26ZM42.1426 26.1367C39.7637 26.1367 38.5742 24.8311 38.5742 22.2197C38.5742 20.9209 38.8978 19.9297 39.5449 19.2461C40.1921 18.5579 41.1195 18.2139 42.3271 18.2139C43.2113 18.2139 44.0042 18.387 44.7061 18.7334L44.0908 20.3467C43.7627 20.2145 43.4574 20.1074 43.1748 20.0254C42.8923 19.9388 42.6097 19.8955 42.3271 19.8955C41.2425 19.8955 40.7002 20.6657 40.7002 22.2061C40.7002 23.7008 41.2425 24.4482 42.3271 24.4482C42.7282 24.4482 43.0996 24.3958 43.4414 24.291C43.7832 24.1816 44.125 24.013 44.4668 23.7852V25.5693C44.1296 25.7835 43.7878 25.9316 43.4414 26.0137C43.0996 26.0957 42.6667 26.1367 42.1426 26.1367ZM53.2988 26H51.2139V21.5361C51.2139 20.4333 50.8037 19.8818 49.9834 19.8818C49.4001 19.8818 48.9785 20.0801 48.7188 20.4766C48.459 20.873 48.3291 21.5156 48.3291 22.4043V26H46.2441V15.3633H48.3291V17.5303C48.3291 17.6989 48.3132 18.0954 48.2812 18.7197L48.2334 19.335H48.3428C48.8076 18.5876 49.5459 18.2139 50.5576 18.2139C51.4554 18.2139 52.1367 18.4554 52.6016 18.9385C53.0664 19.4215 53.2988 20.1143 53.2988 21.0166V26Z" fill="black"/>
<path d="M65.7031 21.9355C65.7031 19.11 66.2988 17.0072 67.4902 15.627C68.6882 14.2467 70.4785 13.5566 72.8613 13.5566C73.6751 13.5566 74.3132 13.6055 74.7754 13.7031V16.1152C74.196 15.985 73.623 15.9199 73.0566 15.9199C72.0215 15.9199 71.1751 16.0762 70.5176 16.3887C69.8665 16.7012 69.3783 17.1634 69.0527 17.7754C68.7272 18.3874 68.5352 19.2565 68.4766 20.3828H68.6035C69.248 19.276 70.2799 18.7227 71.6992 18.7227C72.9753 18.7227 73.9746 19.123 74.6973 19.9238C75.4199 20.7246 75.7812 21.8314 75.7812 23.2441C75.7812 24.7676 75.3516 25.9753 74.4922 26.8672C73.6328 27.7526 72.4414 28.1953 70.918 28.1953C69.8633 28.1953 68.9421 27.9512 68.1543 27.4629C67.373 26.9746 66.7676 26.2617 66.3379 25.3242C65.9147 24.3867 65.7031 23.2572 65.7031 21.9355ZM70.8594 25.7832C71.5039 25.7832 71.9987 25.5684 72.3438 25.1387C72.6888 24.7025 72.8613 24.084 72.8613 23.2832C72.8613 22.5866 72.6986 22.0397 72.373 21.6426C72.054 21.2389 71.569 21.0371 70.918 21.0371C70.306 21.0371 69.7819 21.2357 69.3457 21.6328C68.916 22.0299 68.7012 22.4922 68.7012 23.0195C68.7012 23.7943 68.903 24.4486 69.3066 24.9824C69.7168 25.5163 70.2344 25.7832 70.8594 25.7832ZM77.3242 16.8965C77.3242 16.2975 77.474 15.7376 77.7734 15.2168C78.0729 14.696 78.4831 14.2826 79.0039 13.9766C79.5247 13.6706 80.0911 13.5176 80.7031 13.5176C81.3021 13.5176 81.862 13.6673 82.3828 13.9668C82.9102 14.2663 83.3236 14.6797 83.623 15.207C83.929 15.7344 84.082 16.2975 84.082 16.8965C84.082 17.502 83.929 18.0684 83.623 18.5957C83.3236 19.1165 82.9134 19.5234 82.3926 19.8164C81.8717 20.1094 81.3086 20.2559 80.7031 20.2559C79.7591 20.2559 78.9583 19.9336 78.3008 19.2891C77.6497 18.638 77.3242 17.8405 77.3242 16.8965ZM79.1895 16.8965C79.1895 17.3132 79.3327 17.668 79.6191 17.9609C79.9121 18.2539 80.2734 18.4004 80.7031 18.4004C81.1328 18.4004 81.4941 18.2507 81.7871 17.9512C82.0801 17.6517 82.2266 17.3001 82.2266 16.8965C82.2266 16.4863 82.0768 16.1283 81.7773 15.8223C81.4844 15.5163 81.1263 15.3633 80.7031 15.3633C80.2865 15.3633 79.9284 15.513 79.6289 15.8125C79.3359 16.112 79.1895 16.4733 79.1895 16.8965Z" fill="black"/>
<path d="M90.2473 22.3836C90.404 22.3593 90.549 22.2862 90.6617 22.1747C90.7744 22.0631 90.8491 21.9189 90.875 21.7625C91.4417 18.3205 93.9514 16.25 96.875 16.25C99.5905 16.25 101.404 18.0195 102.134 19.8941C102.181 20.0142 102.259 20.1201 102.359 20.2012C102.459 20.2823 102.579 20.3359 102.706 20.3567C105.05 20.7387 107 22.3039 107 25.025C107 27.8094 104.722 29.75 101.938 29.75H90.9688C88.6484 29.75 86.75 28.5922 86.75 26.0375C86.75 23.7655 88.5627 22.6522 90.2473 22.3836V22.3836Z" stroke="black" stroke-width="1.1875" stroke-linejoin="round"/>
<path d="M104.037 20.7219C104.496 20.3683 104.866 19.9133 105.12 19.3926C105.373 18.872 105.502 18.2997 105.497 17.7207C105.492 17.1418 105.353 16.5718 105.091 16.0555C104.829 15.5391 104.451 15.0905 103.987 14.7447C103.523 14.3989 102.984 14.1653 102.415 14.0623C101.845 13.9592 101.259 13.9895 100.703 14.1508C100.147 14.312 99.6357 14.5998 99.2094 14.9917C98.7832 15.3835 98.4535 15.8688 98.2461 16.4094" stroke="black" stroke-width="1.1875" stroke-linecap="round" stroke-linejoin="round"/>
<path d="M107.75 17.75H109.25" stroke="black" stroke-width="1.1875" stroke-linecap="round" stroke-linejoin="round"/>
<path d="M101.75 10.25V11.75" stroke="black" stroke-width="1.1875" stroke-linecap="round" stroke-linejoin="round"/>
<path d="M96.4466 12.4466L97.5073 13.5073" stroke="black" stroke-width="1.1875" stroke-linecap="round" stroke-linejoin="round"/>
<path d="M107.053 12.4466L105.993 13.5073" stroke="black" stroke-width="1.1875" stroke-linecap="round" stroke-linejoin="round"/>
</svg>
