<svg width="160" height="600" viewBox="0 0 160 600" fill="none" xmlns="http://www.w3.org/2000/svg">
<rect width="160" height="600" fill="#B5B0B0"/>
<path d="M37.5762 283H34.6465V276.906H28.9336V283H26.0039V268.781H28.9336V274.543H34.6465V268.781H37.5762V283ZM42.9375 283H40.1055V272.434H42.9375V283ZM39.9395 269.699C39.9395 269.276 40.0794 268.928 40.3594 268.654C40.6458 268.381 41.0332 268.244 41.5215 268.244C42.0033 268.244 42.3874 268.381 42.6738 268.654C42.9603 268.928 43.1035 269.276 43.1035 269.699C43.1035 270.129 42.957 270.48 42.6641 270.754C42.3776 271.027 41.9967 271.164 41.5215 271.164C41.0462 271.164 40.6621 271.027 40.3691 270.754C40.0827 270.48 39.9395 270.129 39.9395 269.699ZM50.1348 283.195C48.5853 283.195 47.3223 282.72 46.3457 281.77C45.3757 280.819 44.8906 279.553 44.8906 277.971V277.697C44.8906 276.636 45.0957 275.689 45.5059 274.855C45.916 274.016 46.4954 273.371 47.2441 272.922C47.9993 272.466 48.8587 272.238 49.8223 272.238C51.2676 272.238 52.4036 272.694 53.2305 273.605C54.0638 274.517 54.4805 275.809 54.4805 277.482V278.635H47.752C47.8431 279.325 48.1165 279.878 48.5723 280.295C49.0345 280.712 49.6172 280.92 50.3203 280.92C51.4076 280.92 52.2572 280.526 52.8691 279.738L54.2559 281.291C53.8327 281.89 53.2598 282.359 52.5371 282.697C51.8145 283.029 51.0137 283.195 50.1348 283.195ZM49.8125 274.523C49.2526 274.523 48.7969 274.712 48.4453 275.09C48.1003 275.467 47.8789 276.008 47.7812 276.711H51.707V276.486C51.694 275.861 51.5247 275.38 51.1992 275.041C50.8737 274.696 50.4115 274.523 49.8125 274.523ZM62.0293 275.08C61.6452 275.028 61.3066 275.002 61.0137 275.002C59.946 275.002 59.2461 275.363 58.9141 276.086V283H56.0918V272.434H58.7578L58.8359 273.693C59.4023 272.723 60.1868 272.238 61.1895 272.238C61.502 272.238 61.7949 272.281 62.0684 272.365L62.0293 275.08ZM72.2148 278.762L71.1992 279.777V283H68.377V268H71.1992V276.311L71.7461 275.607L74.4512 272.434H77.8398L74.0215 276.838L78.1719 283H74.9297L72.2148 278.762ZM78.6211 277.619C78.6211 276.571 78.8229 275.637 79.2266 274.816C79.6302 273.996 80.2096 273.361 80.9648 272.912C81.7266 272.463 82.6087 272.238 83.6113 272.238C85.0371 272.238 86.1992 272.674 87.0977 273.547C88.0026 274.419 88.5072 275.604 88.6113 277.102L88.6309 277.824C88.6309 279.445 88.1784 280.747 87.2734 281.73C86.3685 282.707 85.1543 283.195 83.6309 283.195C82.1074 283.195 80.89 282.707 79.9785 281.73C79.0736 280.754 78.6211 279.426 78.6211 277.746V277.619ZM81.4434 277.824C81.4434 278.827 81.6322 279.595 82.0098 280.129C82.3874 280.656 82.9277 280.92 83.6309 280.92C84.3145 280.92 84.8483 280.66 85.2324 280.139C85.6165 279.611 85.8086 278.771 85.8086 277.619C85.8086 276.636 85.6165 275.874 85.2324 275.334C84.8483 274.794 84.3079 274.523 83.6113 274.523C82.9212 274.523 82.3874 274.794 82.0098 275.334C81.6322 275.868 81.4434 276.698 81.4434 277.824ZM82.5762 269.67C82.5762 270.015 82.4492 270.308 82.1953 270.549C81.9414 270.783 81.6159 270.9 81.2188 270.9C80.8151 270.9 80.4896 270.78 80.2422 270.539C79.9948 270.298 79.8711 270.008 79.8711 269.67C79.8711 269.331 79.9948 269.042 80.2422 268.801C80.4896 268.553 80.8151 268.43 81.2188 268.43C81.6224 268.43 81.9479 268.553 82.1953 268.801C82.4492 269.042 82.5762 269.331 82.5762 269.67ZM84.627 269.67C84.627 269.318 84.7572 269.025 85.0176 268.791C85.2845 268.55 85.6068 268.43 85.9844 268.43C86.3685 268.43 86.6875 268.55 86.9414 268.791C87.2018 269.032 87.332 269.325 87.332 269.67C87.332 270.008 87.2083 270.301 86.9609 270.549C86.7135 270.79 86.388 270.91 85.9844 270.91C85.5807 270.91 85.252 270.79 84.998 270.549C84.7507 270.301 84.627 270.008 84.627 269.67ZM92.9668 272.434L93.0547 273.654C93.8099 272.71 94.8223 272.238 96.0918 272.238C97.2116 272.238 98.0449 272.567 98.5918 273.225C99.1387 273.882 99.4186 274.865 99.4316 276.174V283H96.6094V276.242C96.6094 275.643 96.4792 275.21 96.2188 274.943C95.9583 274.67 95.5254 274.533 94.9199 274.533C94.1257 274.533 93.5299 274.872 93.1328 275.549V283H90.3105V272.434H92.9668ZM104.178 272.434L104.266 273.654C105.021 272.71 106.033 272.238 107.303 272.238C108.423 272.238 109.256 272.567 109.803 273.225C110.35 273.882 110.63 274.865 110.643 276.174V283H107.82V276.242C107.82 275.643 107.69 275.21 107.43 274.943C107.169 274.67 106.736 274.533 106.131 274.533C105.337 274.533 104.741 274.872 104.344 275.549V283H101.521V272.434H104.178ZM116.17 269.836V272.434H117.977V274.504H116.17V279.777C116.17 280.168 116.245 280.448 116.395 280.617C116.544 280.786 116.831 280.871 117.254 280.871C117.566 280.871 117.843 280.848 118.084 280.803V282.941C117.531 283.111 116.961 283.195 116.375 283.195C114.396 283.195 113.387 282.196 113.348 280.197V274.504H111.805V272.434H113.348V269.836H116.17ZM124.412 283.195C122.863 283.195 121.6 282.72 120.623 281.77C119.653 280.819 119.168 279.553 119.168 277.971V277.697C119.168 276.636 119.373 275.689 119.783 274.855C120.193 274.016 120.773 273.371 121.521 272.922C122.277 272.466 123.136 272.238 124.1 272.238C125.545 272.238 126.681 272.694 127.508 273.605C128.341 274.517 128.758 275.809 128.758 277.482V278.635H122.029C122.12 279.325 122.394 279.878 122.85 280.295C123.312 280.712 123.895 280.92 124.598 280.92C125.685 280.92 126.535 280.526 127.146 279.738L128.533 281.291C128.11 281.89 127.537 282.359 126.814 282.697C126.092 283.029 125.291 283.195 124.412 283.195ZM124.09 274.523C123.53 274.523 123.074 274.712 122.723 275.09C122.378 275.467 122.156 276.008 122.059 276.711H125.984V276.486C125.971 275.861 125.802 275.38 125.477 275.041C125.151 274.696 124.689 274.523 124.09 274.523ZM23.709 306H20.7793V291.781H23.709V306ZM29.002 296.586C29.7507 295.688 30.6914 295.238 31.8242 295.238C34.1159 295.238 35.278 296.57 35.3105 299.232V306H32.4883V299.311C32.4883 298.705 32.3581 298.259 32.0977 297.973C31.8372 297.68 31.4043 297.533 30.7988 297.533C29.972 297.533 29.373 297.852 29.002 298.49V306H26.1797V291H29.002V296.586ZM43.377 298.08C42.9928 298.028 42.6543 298.002 42.3613 298.002C41.2936 298.002 40.5938 298.363 40.2617 299.086V306H37.4395V295.434H40.1055L40.1836 296.693C40.75 295.723 41.5345 295.238 42.5371 295.238C42.8496 295.238 43.1426 295.281 43.416 295.365L43.377 298.08ZM49.4121 306.195C47.8626 306.195 46.5996 305.72 45.623 304.77C44.653 303.819 44.168 302.553 44.168 300.971V300.697C44.168 299.636 44.373 298.689 44.7832 297.855C45.1934 297.016 45.7728 296.371 46.5215 295.922C47.2767 295.466 48.1361 295.238 49.0996 295.238C50.5449 295.238 51.681 295.694 52.5078 296.605C53.3411 297.517 53.7578 298.809 53.7578 300.482V301.635H47.0293C47.1204 302.325 47.3939 302.878 47.8496 303.295C48.3118 303.712 48.8945 303.92 49.5977 303.92C50.6849 303.92 51.5345 303.526 52.1465 302.738L53.5332 304.291C53.11 304.89 52.5371 305.359 51.8145 305.697C51.0918 306.029 50.291 306.195 49.4121 306.195ZM49.0898 297.523C48.5299 297.523 48.0742 297.712 47.7227 298.09C47.3776 298.467 47.1562 299.008 47.0586 299.711H50.9844V299.486C50.9714 298.861 50.8021 298.38 50.4766 298.041C50.151 297.696 49.6888 297.523 49.0898 297.523ZM71.6094 301.898L73.5234 291.781H76.4434L73.2891 306H70.3398L68.0254 296.488L65.7109 306H62.7617L59.6074 291.781H62.5273L64.4512 301.879L66.7949 291.781H69.2754L71.6094 301.898ZM82.4004 306.195C80.8509 306.195 79.5879 305.72 78.6113 304.77C77.6413 303.819 77.1562 302.553 77.1562 300.971V300.697C77.1562 299.636 77.3613 298.689 77.7715 297.855C78.1816 297.016 78.7611 296.371 79.5098 295.922C80.265 295.466 81.1243 295.238 82.0879 295.238C83.5332 295.238 84.6693 295.694 85.4961 296.605C86.3294 297.517 86.7461 298.809 86.7461 300.482V301.635H80.0176C80.1087 302.325 80.3822 302.878 80.8379 303.295C81.3001 303.712 81.8828 303.92 82.5859 303.92C83.6732 303.92 84.5228 303.526 85.1348 302.738L86.5215 304.291C86.0983 304.89 85.5254 305.359 84.8027 305.697C84.0801 306.029 83.2793 306.195 82.4004 306.195ZM82.0781 297.523C81.5182 297.523 81.0625 297.712 80.7109 298.09C80.3659 298.467 80.1445 299.008 80.0469 299.711H83.9727V299.486C83.9596 298.861 83.7904 298.38 83.4648 298.041C83.1393 297.696 82.6771 297.523 82.0781 297.523ZM94.2949 298.08C93.9108 298.028 93.5723 298.002 93.2793 298.002C92.2116 298.002 91.5117 298.363 91.1797 299.086V306H88.3574V295.434H91.0234L91.1016 296.693C91.668 295.723 92.4525 295.238 93.4551 295.238C93.7676 295.238 94.0605 295.281 94.334 295.365L94.2949 298.08ZM105.184 300.814C105.184 302.507 104.822 303.829 104.1 304.779C103.377 305.723 102.368 306.195 101.072 306.195C99.9264 306.195 99.0117 305.756 98.3281 304.877L98.2012 306H95.6621V291H98.4844V296.381C99.1354 295.619 99.9915 295.238 101.053 295.238C102.342 295.238 103.351 295.714 104.08 296.664C104.816 297.608 105.184 298.939 105.184 300.658V300.814ZM102.361 300.609C102.361 299.542 102.192 298.764 101.854 298.275C101.515 297.781 101.01 297.533 100.34 297.533C99.4414 297.533 98.8229 297.901 98.4844 298.637V302.807C98.8294 303.549 99.4544 303.92 100.359 303.92C101.271 303.92 101.87 303.471 102.156 302.572C102.293 302.143 102.361 301.488 102.361 300.609ZM113.26 304.926C112.563 305.772 111.6 306.195 110.369 306.195C109.236 306.195 108.37 305.87 107.771 305.219C107.179 304.568 106.876 303.614 106.863 302.357V295.434H109.686V302.26C109.686 303.36 110.187 303.91 111.189 303.91C112.146 303.91 112.804 303.578 113.162 302.914V295.434H115.994V306H113.338L113.26 304.926ZM120.721 295.434L120.809 296.654C121.564 295.71 122.576 295.238 123.846 295.238C124.965 295.238 125.799 295.567 126.346 296.225C126.893 296.882 127.173 297.865 127.186 299.174V306H124.363V299.242C124.363 298.643 124.233 298.21 123.973 297.943C123.712 297.67 123.279 297.533 122.674 297.533C121.88 297.533 121.284 297.872 120.887 298.549V306H118.064V295.434H120.721ZM128.924 300.639C128.924 299.018 129.308 297.712 130.076 296.723C130.851 295.733 131.893 295.238 133.201 295.238C134.36 295.238 135.262 295.635 135.906 296.43L136.023 295.434H138.582V305.648C138.582 306.573 138.37 307.377 137.947 308.061C137.531 308.744 136.941 309.265 136.18 309.623C135.418 309.981 134.526 310.16 133.504 310.16C132.729 310.16 131.974 310.004 131.238 309.691C130.503 309.385 129.946 308.988 129.568 308.5L130.818 306.781C131.521 307.569 132.374 307.963 133.377 307.963C134.126 307.963 134.708 307.761 135.125 307.357C135.542 306.96 135.75 306.394 135.75 305.658V305.092C135.099 305.827 134.243 306.195 133.182 306.195C131.912 306.195 130.883 305.701 130.096 304.711C129.314 303.715 128.924 302.396 128.924 300.756V300.639ZM131.746 300.844C131.746 301.801 131.938 302.553 132.322 303.1C132.706 303.64 133.234 303.91 133.904 303.91C134.764 303.91 135.379 303.588 135.75 302.943V298.5C135.372 297.855 134.764 297.533 133.924 297.533C133.247 297.533 132.713 297.81 132.322 298.363C131.938 298.917 131.746 299.743 131.746 300.844ZM52.8496 326.08C52.8496 325.735 52.6771 325.465 52.332 325.27C51.9935 325.068 51.4466 324.889 50.6914 324.732C48.1784 324.205 46.9219 323.137 46.9219 321.529C46.9219 320.592 47.3092 319.811 48.084 319.186C48.8652 318.554 49.8841 318.238 51.1406 318.238C52.4818 318.238 53.5527 318.554 54.3535 319.186C55.1608 319.817 55.5645 320.637 55.5645 321.646H52.7422C52.7422 321.243 52.612 320.911 52.3516 320.65C52.0911 320.383 51.6842 320.25 51.1309 320.25C50.6556 320.25 50.2878 320.357 50.0273 320.572C49.7669 320.787 49.6367 321.061 49.6367 321.393C49.6367 321.705 49.7832 321.959 50.0762 322.154C50.3757 322.343 50.877 322.509 51.5801 322.652C52.2832 322.789 52.8757 322.945 53.3574 323.121C54.8483 323.668 55.5938 324.615 55.5938 325.963C55.5938 326.926 55.1803 327.708 54.3535 328.307C53.5267 328.899 52.459 329.195 51.1504 329.195C50.265 329.195 49.4772 329.039 48.7871 328.727C48.1035 328.408 47.5664 327.975 47.1758 327.428C46.7852 326.874 46.5898 326.279 46.5898 325.641H49.2656C49.2917 326.142 49.4772 326.526 49.8223 326.793C50.1673 327.06 50.6296 327.193 51.209 327.193C51.7493 327.193 52.1562 327.092 52.4297 326.891C52.7096 326.682 52.8496 326.412 52.8496 326.08ZM60.7988 315.836V318.434H62.6055V320.504H60.7988V325.777C60.7988 326.168 60.8737 326.448 61.0234 326.617C61.1732 326.786 61.4596 326.871 61.8828 326.871C62.1953 326.871 62.472 326.848 62.7129 326.803V328.941C62.1595 329.111 61.5898 329.195 61.0039 329.195C59.0247 329.195 58.0156 328.196 57.9766 326.197V320.504H56.4336V318.434H57.9766V315.836H60.7988ZM69.041 329.195C67.4915 329.195 66.2285 328.72 65.252 327.77C64.2819 326.819 63.7969 325.553 63.7969 323.971V323.697C63.7969 322.636 64.002 321.689 64.4121 320.855C64.8223 320.016 65.4017 319.371 66.1504 318.922C66.9056 318.466 67.765 318.238 68.7285 318.238C70.1738 318.238 71.3099 318.694 72.1367 319.605C72.9701 320.517 73.3867 321.809 73.3867 323.482V324.635H66.6582C66.7493 325.325 67.0228 325.878 67.4785 326.295C67.9408 326.712 68.5234 326.92 69.2266 326.92C70.3138 326.92 71.1634 326.526 71.7754 325.738L73.1621 327.291C72.7389 327.89 72.166 328.359 71.4434 328.697C70.7207 329.029 69.9199 329.195 69.041 329.195ZM68.7188 320.523C68.1589 320.523 67.7031 320.712 67.3516 321.09C67.0065 321.467 66.7852 322.008 66.6875 322.711H70.6133V322.486C70.6003 321.861 70.431 321.38 70.1055 321.041C69.7799 320.696 69.3177 320.523 68.7188 320.523ZM77.752 319.586C78.5007 318.688 79.4414 318.238 80.5742 318.238C82.8659 318.238 84.028 319.57 84.0605 322.232V329H81.2383V322.311C81.2383 321.705 81.1081 321.259 80.8477 320.973C80.5872 320.68 80.1543 320.533 79.5488 320.533C78.722 320.533 78.123 320.852 77.752 321.49V329H74.9297V314H77.752V319.586ZM91.0527 329.195C89.5033 329.195 88.2402 328.72 87.2637 327.77C86.2936 326.819 85.8086 325.553 85.8086 323.971V323.697C85.8086 322.636 86.0137 321.689 86.4238 320.855C86.834 320.016 87.4134 319.371 88.1621 318.922C88.9173 318.466 89.7767 318.238 90.7402 318.238C92.1855 318.238 93.3216 318.694 94.1484 319.605C94.9818 320.517 95.3984 321.809 95.3984 323.482V324.635H88.6699C88.7611 325.325 89.0345 325.878 89.4902 326.295C89.9525 326.712 90.5352 326.92 91.2383 326.92C92.3255 326.92 93.1751 326.526 93.7871 325.738L95.1738 327.291C94.7507 327.89 94.1777 328.359 93.4551 328.697C92.7324 329.029 91.9316 329.195 91.0527 329.195ZM90.7305 320.523C90.1706 320.523 89.7148 320.712 89.3633 321.09C89.0182 321.467 88.7969 322.008 88.6992 322.711H92.625V322.486C92.612 321.861 92.4427 321.38 92.1172 321.041C91.7917 320.696 91.3294 320.523 90.7305 320.523ZM99.6074 318.434L99.6953 319.654C100.451 318.71 101.463 318.238 102.732 318.238C103.852 318.238 104.686 318.567 105.232 319.225C105.779 319.882 106.059 320.865 106.072 322.174V329H103.25V322.242C103.25 321.643 103.12 321.21 102.859 320.943C102.599 320.67 102.166 320.533 101.561 320.533C100.766 320.533 100.171 320.872 99.7734 321.549V329H96.9512V318.434H99.6074ZM108.367 327.613C108.367 327.164 108.517 326.799 108.816 326.52C109.122 326.24 109.503 326.1 109.959 326.1C110.421 326.1 110.802 326.24 111.102 326.52C111.408 326.799 111.561 327.164 111.561 327.613C111.561 328.056 111.411 328.417 111.111 328.697C110.812 328.971 110.428 329.107 109.959 329.107C109.497 329.107 109.116 328.971 108.816 328.697C108.517 328.417 108.367 328.056 108.367 327.613Z" fill="#EAEAEA"/>
</svg>
